HIERARCHY
ROOT Hips
{
  OFFSET 0.0 0.0 0.0
  CHANNELS 6 XPOSITION YPOSITION ZPOSITION ZROTATION XROTATION YROTATION 
  JOINT LeftUpLeg
  {
    OFFSET 0.089458 -0.0866707 0.00101652
    CHANNELS 3 ZROTATION XROTATION YROTATION 
    JOINT LeftLeg
    {
      OFFSET 0.0 -0.444227 0.013727
      CHANNELS 3 ZROTATION XROTATION YROTATION 
      JOINT LeftFoot
      {
        OFFSET -0.00253549 -0.420924 -0.0146059
        CHANNELS 3 ZROTATION XROTATION YROTATION 
        End Site
        {
          OFFSET -0.0004 -0.0441509 0.084991
        }
      }
    }
  }
  JOINT Spine
  {
    OFFSET 0.0 0.118905 0.0
    CHANNELS 3 ZROTATION XROTATION YROTATION 
    JOINT Spine1
    {
      OFFSET 0.0 0.256574 0.00127663
      CHANNELS 3 ZROTATION XROTATION YROTATION 
      End Site
      {
        OFFSET -0.0029 0.2150836 0.02525291
      }
      JOINT RightArm
      {
        OFFSET -0.162727 -0.05365632 0.00102123
        CHANNELS 3 ZROTATION XROTATION YROTATION 
        JOINT RightForeArm
        {
          OFFSET -0.26364 0.00099144 -0.0142434
          CHANNELS 3 ZROTATION XROTATION YROTATION 
          End Site
          {
            OFFSET -0.220324 0.00085362 0.0102216
          }
        }
      }
      JOINT LeftArm
      {
        OFFSET 0.162727 -0.0536563199 0.00102123
        CHANNELS 3 ZROTATION XROTATION YROTATION 
        JOINT LeftForeArm
        {
          OFFSET 0.262597 0.00099144 -0.0142434
          CHANNELS 3 ZROTATION XROTATION YROTATION 
          End Site
          {
            OFFSET 0.220902 0.00085362 0.0102216
          }
        }
      }
    }
  }
  JOINT RightUpLeg
  {
    OFFSET -0.089458 -0.0866707 0.00101652
    CHANNELS 3 ZROTATION XROTATION YROTATION 
    JOINT RightLeg
    {
      OFFSET 0.0 -0.444227 0.013727
      CHANNELS 3 ZROTATION XROTATION YROTATION 
      JOINT RightFoot
      {
        OFFSET 0.00253549 -0.420924 -0.0146059
        CHANNELS 3 ZROTATION XROTATION YROTATION 
        End Site
        {
          OFFSET 0.0004 -0.0441509 0.084991
        }
      }
    }
  }
}
MOTION
Frames: 6
Frame Time: 0.033333
1.99377 0.988096403539 0.0803301 -6.67728001752 -0.333693000687 -91.8515984866 -0.444101994764 4.1068898682 3.54897995312 -0.420912008428 10.2420001416 21.2996000021 -2.53661593108 -34.6027048071 -0.0443244559229 -0.35994099078 5.89798019265 0.153048997952 -0.644181020638 -6.58214999653 0.298974001877 76.9591359826 -18.1083255936 1.33796938505 10.0445999906 41.3712993311 4.7346598119 -72.4951360769 -8.43190182755 3.97154582782 -7.23279040177 39.0306993705 -10.9356997669 -2.27630995129 5.83927983938 -5.62235986153 -0.253160001091 11.7870000309 -11.1835997753 4.75204520465 -37.6197803635 0.105577402302 
1.99365 0.988096403539 0.0804668 -6.72946991985 -0.370662013219 -91.9768983069 -0.517909018935 4.24571004799 3.52665996213 -0.42598801292 10.1060998677 21.4603997307 -2.52287785934 -34.5729046917 -0.0443085643939 -0.349359000043 5.87974017248 0.19603899566 -0.684725984046 -6.48969997102 0.352103001862 76.9517320575 -18.1059350274 1.38409568023 10.012499809 41.5228987949 4.74908004878 -72.4869125291 -8.31450709742 3.99391213603 -7.21751041482 38.8837000392 -10.9934003512 -2.3473799906 5.85210010445 -5.66555013586 -0.280520991854 11.8609001164 -10.991100285 4.79920381889 -37.669879801 0.105648545659 
1.99356 0.988096403539 0.0805961 -6.76155985612 -0.402336988815 -92.0531027275 -0.573114983397 4.3481902063 3.51217996109 -0.438677997469 9.98662022228 21.5627996343 -2.48482068562 -34.5467075011 -0.0442946238711 -0.337481994768 5.85997018992 0.220310993351 -0.722489993245 -6.42058016417 0.385592006332 76.9671204737 -17.9944048684 1.40554674309 10.0488995947 41.3307997244 4.75956993869 -72.4675830938 -8.13007149926 4.03564843384 -7.190220394 38.7173985933 -11.0747999844 -2.40122002395 5.85868995634 -5.69733015229 -0.303736991606 11.9115997568 -10.8629001956 4.83129290139 -37.7077805207 0.105702573522 
1.99366 0.988096403539 0.0806112 -6.70755013526 -0.388532989739 -91.9651025702 -0.531919017583 4.25565992606 3.53103000253 -0.457551010765 10.0266997723 21.4539008057 -2.45667304916 -34.5558053131 -0.0442994463582 -0.353330007994 5.83877995491 0.18411100409 -0.680588009987 -6.46014019295 0.341652012019 76.9900767395 -17.8527962639 1.39107570667 10.1735001744 40.8639016532 4.70714012596 -72.4525225267 -8.05268887106 4.06671426862 -7.17835037899 38.7075016492 -11.0957003633 -2.36349005897 5.8224101259 -5.6630801687 -0.300305995487 11.873099688 -10.9919002709 4.81242279626 -37.6818804434 0.105665674492 
1.99387 0.988096403539 0.0806206 -6.61162994676 -0.359324993094 -91.8384981837 -0.458589999932 4.07517004281 3.56344992232 -0.479741014718 10.1359998745 21.2926007658 -2.45918762599 -34.5723070502 -0.0443082242185 -0.372712990961 5.83555012921 0.132337996758 -0.628146991478 -6.57921984538 0.276898990562 76.9866616449 -17.7879811838 1.38267894959 10.2844002484 40.6323001837 4.61072987139 -72.432243695 -8.14653140139 4.08437500338 -7.19617973405 38.8406015455 -11.037999779 -2.29398989596 5.75234988738 -5.59477016615 -0.292620992134 11.8044998293 -11.2045001541 4.7837244758 -37.6315795153 0.105594077568 
1.99398 0.988096403539 0.0806258 -6.55882020476 -0.354816001025 -91.7999007847 -0.438476987137 3.98709005771 3.57821999295 -0.494968974834 10.1801997362 21.2479005928 -2.464856683 -34.5689056159 -0.0443064766505 -0.366965013248 5.85694014725 0.118506997091 -0.647536991398 -6.67225982848 0.261885994643 76.9522716424 -17.7711157392 1.39173844847 10.2977003343 40.7795010056 4.57080015861 -72.3988918813 -8.30880047437 4.09224594262 -7.22725965609 38.9826011784 -10.9615998442 -2.27206007953 5.70826998091 -5.55738982148 -0.300282009784 11.7742002564 -11.2863002072 4.78558100659 -37.6141796083 0.105569471545 
